<svg width="180" height="180" viewBox="0 0 180 180" fill="none" xmlns="http://www.w3.org/2000/svg">
<rect width="180" height="180" fill="url(#paint0_linear_2228_2)"/>
<path d="M58.9207 86.864C53.2248 86.864 48.1368 85.776 43.6568 83.6C39.2407 81.424 35.7847 78.384 33.2887 74.48C30.7927 70.576 29.5447 66.128 29.5447 61.136V43.472C29.5447 38.48 30.7607 34.064 33.1927 30.224C35.6888 26.32 39.1128 23.312 43.4647 21.2C47.8168 19.024 52.8088 17.936 58.4408 17.936C64.0728 17.936 69.0648 18.8 73.4168 20.528C77.8328 22.192 81.2568 24.56 83.6888 27.632C86.1208 30.64 87.3368 34.096 87.3368 38C87.3368 40.368 86.5368 42.256 84.9368 43.664C83.4008 45.008 81.3208 45.68 78.6968 45.68C77.4168 45.68 76.0088 45.488 74.4727 45.104C74.6008 43.568 74.6648 42.064 74.6648 40.592C74.6648 37.2 73.1608 34.448 70.1528 32.336C67.1448 30.224 63.2408 29.168 58.4408 29.168C53.7048 29.168 49.8328 30.512 46.8248 33.2C43.8808 35.824 42.4088 39.248 42.4088 43.472V61.136C42.4088 65.424 43.9448 68.912 47.0167 71.6C50.0888 74.288 54.0568 75.632 58.9207 75.632C63.7208 75.632 67.6248 74.576 70.6328 72.464C73.6408 70.352 75.1448 67.632 75.1448 64.304C75.1448 62.768 75.0808 61.296 74.9527 59.888C76.5528 59.568 77.8968 59.408 78.9848 59.408C81.6728 59.408 83.8168 60.112 85.4168 61.52C87.0168 62.928 87.8167 64.848 87.8167 67.28C87.8167 71.056 86.6007 74.448 84.1688 77.456C81.7368 80.4 78.3128 82.704 73.8968 84.368C69.5448 86.032 64.5528 86.864 58.9207 86.864ZM110.525 86C108.669 86 107.069 85.328 105.725 83.984C104.445 82.64 103.805 81.04 103.805 79.184V27.44C103.805 24.24 104.861 21.872 106.973 20.336C109.085 18.736 112.317 17.936 116.669 17.936V74.864H142.589C145.597 74.864 147.869 75.824 149.405 77.744C150.941 79.6 151.709 82.352 151.709 86H110.525ZM32.0227 99.656C32.0227 98.056 32.6307 96.68 33.8467 95.528C35.1267 94.376 36.6627 93.8 38.4547 93.8H81.2708C81.2708 97.64 80.5988 100.456 79.2547 102.248C77.9748 103.976 75.8628 104.84 72.9188 104.84H44.8867V121.544H70.4228C70.4228 125.384 69.7508 128.2 68.4068 129.992C67.1268 131.72 65.0148 132.584 62.0708 132.584H44.8867V149.96H74.9348C77.8148 149.96 79.8948 150.856 81.1748 152.648C82.5188 154.376 83.1908 157.16 83.1908 161H38.4547C36.6627 161 35.1267 160.456 33.8467 159.368C32.6307 158.216 32.0227 156.808 32.0227 155.144V99.656ZM121.395 161.864C116.147 161.864 111.347 160.84 106.995 158.792C102.643 156.68 99.187 153.832 96.627 150.248C94.131 146.664 92.883 142.76 92.883 138.536V116.168C92.883 111.944 94.131 108.072 96.627 104.552C99.187 100.968 102.643 98.152 106.995 96.104C111.347 93.992 116.147 92.936 121.395 92.936C126.643 92.936 131.443 93.992 135.795 96.104C140.211 98.152 143.667 100.968 146.163 104.552C148.723 108.072 150.003 111.944 150.003 116.168V138.536C150.003 142.76 148.723 146.664 146.163 150.248C143.667 153.832 140.211 156.68 135.795 158.792C131.443 160.84 126.643 161.864 121.395 161.864ZM121.395 150.632C126.195 150.632 130.035 149.512 132.915 147.272C135.795 144.968 137.235 141.992 137.235 138.344V116.456C137.235 112.744 135.795 109.768 132.915 107.528C130.035 105.224 126.195 104.072 121.395 104.072C116.659 104.072 112.851 105.224 109.971 107.528C107.091 109.768 105.651 112.744 105.651 116.456V138.344C105.651 141.992 107.091 144.968 109.971 147.272C112.851 149.512 116.659 150.632 121.395 150.632Z" fill="white"/>
<defs>
<linearGradient id="paint0_linear_2228_2" x1="0" y1="0" x2="180" y2="180" gradientUnits="userSpaceOnUse">
<stop stop-color="#FF2626"/>
<stop offset="1" stop-color="#4800C4"/>
</linearGradient>
</defs>
</svg>
